<svg xmlns="http://www.w3.org/2000/svg" viewBox="0 0 443.52 1076.46"><defs><style>.cls-1{fill:none;stroke:#dec84f;stroke-miterlimit:10;stroke-width:6.95px;stroke-dasharray:3.97;}</style></defs><g id="Layer_2" data-name="Layer 2"><g id="pic"><path class="cls-1" d="M2.87,2A424.84,424.84,0,0,0,154.8,137.87c45.28,24,95,39.93,137.34,68.71s77.49,75.45,72.77,125.9c-2.45,26.17-15.25,50.22-29.18,72.62A657.4,657.4,0,0,1,164.38,589.21c-36.18,26.31-75.7,49.55-103.95,84S17.51,757.82,38.91,796.8c13.77,25.07,39.73,41.18,65.81,53.51,84.4,39.91,183.07,53.13,255.78,111.25a247.55,247.55,0,0,1,79.73,113.79"/></g></g></svg>